<svg width="225" height="225" viewBox="0 0 225 225" fill="none" xmlns="http://www.w3.org/2000/svg">
<circle cx="112.5" cy="112.5" r="111" fill="#0AC5AE" stroke="#12B4A0" stroke-width="3"/>
<path d="M102.224 164.28C99.3227 157.197 96.4213 150.157 93.52 143.16C90.704 136.163 87.8453 129.165 84.944 122.168C84.2613 120.547 83.3653 118.285 82.256 115.384C81.232 112.397 80.1227 108.984 78.928 105.144C77.8187 101.304 76.7947 97.336 75.856 93.24C76.0267 98.0187 76.1547 102.541 76.24 106.808C76.3253 110.989 76.3253 115 76.24 118.84C76.24 120.717 76.24 122.637 76.24 124.6C76.24 126.563 76.1973 128.525 76.112 130.488C76.112 132.365 76.112 134.285 76.112 136.248C76.112 138.125 76.112 140.045 76.112 142.008C76.112 144.312 76.0267 146.531 75.856 148.664C75.7707 150.797 75.6427 152.419 75.472 153.528C76.9227 153.357 78.672 153.272 80.72 153.272C82.8533 153.187 84.3467 153.144 85.2 153.144V163H56.016V154.552C57.9787 154.467 59.6 154.211 60.88 153.784C62.2453 153.357 63.2693 152.376 63.952 150.84C64.72 149.304 65.104 146.829 65.104 143.416L65.872 94.392C65.9573 92.088 66.0427 89.8693 66.128 87.736C66.2133 85.6027 66.2987 83.9813 66.384 82.872C65.0187 82.9573 63.312 83.0427 61.264 83.128C59.216 83.128 57.7227 83.1707 56.784 83.256V73.4H85.072L104.4 122.936C105.168 124.899 106.021 127.203 106.96 129.848C107.899 132.408 108.795 134.925 109.648 137.4C110.501 139.789 111.141 141.709 111.568 143.16H111.696C112.805 140.173 113.829 137.272 114.768 134.456C115.707 131.64 116.688 128.909 117.712 126.264C121.04 117.389 124.325 108.557 127.568 99.768C130.896 90.9787 134.224 82.1893 137.552 73.4H167.12V81.848C165.243 81.9333 163.579 82.1893 162.128 82.616C160.677 83.0427 159.568 84.024 158.8 85.56C158.117 87.0107 157.819 89.4853 157.904 92.984L159.824 142.008C159.995 144.312 159.995 146.531 159.824 148.664C159.653 150.797 159.483 152.419 159.312 153.528C160.763 153.357 162.512 153.272 164.56 153.272C166.693 153.187 168.187 153.144 169.04 153.144V163H133.456V154.552C135.419 154.467 137.083 154.211 138.448 153.784C139.899 153.357 140.965 152.376 141.648 150.84C142.416 149.304 142.715 146.829 142.544 143.416L141.52 116.28C141.52 115.256 141.435 113.507 141.264 111.032C141.093 108.472 140.923 105.699 140.752 102.712C140.667 99.64 140.581 96.7813 140.496 94.136C140.24 94.7333 139.984 95.3307 139.728 95.928C139.472 96.44 139.259 96.9947 139.088 97.592L114.128 164.28H102.224Z" fill="white"/>
</svg>
